<svg width="24" height="24" viewBox="0 0 24 24" fill="none" xmlns="http://www.w3.org/2000/svg">
<path d="M13.8516 4.49955C14.9105 4.86806 15.8284 5.55711 16.4779 6.47105C17.1274 7.38499 17.4763 8.47847 17.476 9.59969V14.0388L19.9631 16.3603C20.0509 16.4425 20.112 16.5491 20.1384 16.6665C20.1648 16.7838 20.1553 16.9063 20.1112 17.0182C20.0671 17.1301 19.9904 17.2261 19.891 17.2938C19.7917 17.3616 19.6742 17.3979 19.554 17.3981H4.6015C4.48088 17.3984 4.36297 17.3624 4.26315 17.2947C4.16333 17.2269 4.08624 17.1307 4.04193 17.0185C3.99763 16.9064 3.98817 16.7834 4.0148 16.6658C4.04142 16.5481 4.10289 16.4413 4.19118 16.3591L6.67826 14.0388V9.59969C6.67802 8.47847 7.02686 7.38499 7.67635 6.47105C8.32585 5.55711 9.24378 4.86806 10.3027 4.49955C10.3736 4.08024 10.5907 3.69959 10.9155 3.42509C11.2404 3.1506 11.6519 3 12.0771 3C12.5024 3 12.9139 3.1506 13.2387 3.42509C13.5636 3.69959 13.7807 4.08024 13.8516 4.49955Z" stroke="black" stroke-width="1.5" stroke-linecap="round" stroke-linejoin="round"/>
<path d="M10.3779 19.7969C10.5016 20.1484 10.7313 20.4529 11.0354 20.6682C11.3395 20.8836 11.7029 20.9993 12.0756 20.9993C12.4482 20.9993 12.8117 20.8836 13.1157 20.6682C13.4198 20.4529 13.6496 20.1484 13.7732 19.7969H10.3779Z" stroke="black" stroke-width="1.5"/>
</svg>
