<svg width="24" height="24" viewBox="0 0 24 24" fill="none" xmlns="http://www.w3.org/2000/svg">
<path d="M12.0004 21C13.9973 20.9997 15.9374 20.3353 17.5152 19.1114C19.0931 17.8874 20.2191 16.1735 20.716 14.2394C21.2129 12.3053 21.0524 10.2608 20.2598 8.42795C19.4672 6.59506 18.0876 5.0778 16.3381 4.11506C14.5886 3.15231 12.5686 2.79875 10.5961 3.11004C8.62357 3.42132 6.81061 4.37978 5.44261 5.83452C4.07462 7.28925 3.22928 9.15764 3.03969 11.1455C2.8501 13.1334 3.32702 15.1279 4.39537 16.815L3.00037 21L7.18537 19.605C8.62494 20.5187 10.2953 21.0026 12.0004 21Z" stroke="black" stroke-width="1.5" stroke-linecap="round" stroke-linejoin="round"/>
</svg>
