<svg width="42" height="42" viewBox="0 0 42 42" fill="none" xmlns="http://www.w3.org/2000/svg">
<g opacity="0.21">
<path d="M21 1L21.5166 1.00684C32.3235 1.28084 41 10.127 41 21C41 28.939 36.3741 35.7973 29.6709 39.0273C27.0478 40.2913 24.1067 41 21 41C17.8933 41 14.9522 40.2913 12.3291 39.0273C5.62586 35.7973 1 28.939 1 21C1 9.9543 9.9543 1 21 1Z" fill="#CD6200"/>
<path d="M21 1L21.0066 0.5H21V1ZM21.5166 1.00684L21.5293 0.50696L21.5232 0.50688L21.5166 1.00684ZM41 21H41.5H41ZM29.6709 39.0273L29.4538 38.5769L29.6709 39.0273ZM12.3291 39.0273L12.1121 39.4778L12.3291 39.0273ZM1 21H0.5H1ZM21 1L20.9934 1.49996L21.51 1.50679L21.5166 1.00684L21.5232 0.50688L21.0066 0.500044L21 1ZM21.5166 1.00684L21.5039 1.50668C32.0404 1.77383 40.5 10.3989 40.5 21H41H41.5C41.5 9.85512 32.6066 0.787861 21.5293 0.506997L21.5166 1.00684ZM41 21H40.5C40.5 28.7398 35.9907 35.427 29.4538 38.5769L29.6709 39.0273L29.8879 39.4778C36.7576 36.1675 41.5 29.1382 41.5 21H41ZM29.6709 39.0273L29.4538 38.5769C26.8969 39.809 24.0299 40.5 21 40.5V41V41.5C24.1835 41.5 27.1986 40.7737 29.8879 39.4778L29.6709 39.0273ZM21 41V40.5C17.9701 40.5 15.1031 39.809 12.5461 38.5769L12.3291 39.0273L12.1121 39.4778C14.8014 40.7737 17.8165 41.5 21 41.5V41ZM12.3291 39.0273L12.5461 38.5769C6.0093 35.427 1.5 28.7398 1.5 21H1H0.5C0.5 29.1382 5.24243 36.1675 12.1121 39.4778L12.3291 39.0273ZM1 21H1.5C1.5 10.2304 10.2304 1.5 21 1.5V1V0.5C9.67816 0.5 0.5 9.67816 0.5 21H1Z" fill="#E7E7E7"/>
</g>
<path fill-rule="evenodd" clip-rule="evenodd" d="M11 17.207L19.6003 22.1724C19.6929 22.2259 19.79 22.2645 19.8889 22.289V31.9192L11.6134 27.0217C11.2332 26.7967 11 26.3878 11 25.946V17.207ZM31.0022 17.0742V25.9452C31.0022 26.387 30.769 26.7959 30.3888 27.0209L22.1133 31.9184V22.2039C22.1334 22.1938 22.1534 22.183 22.1732 22.1716L31.0022 17.0742Z" fill="#CD6200"/>
<path opacity="0.499209" fill-rule="evenodd" clip-rule="evenodd" d="M11.2695 14.7983C11.3746 14.6657 11.5072 14.5536 11.6618 14.4712L20.4118 9.8108C20.7791 9.61515 21.2197 9.61515 21.587 9.8108L30.337 14.4712C30.4562 14.5347 30.5623 14.6159 30.6528 14.7105L21.0593 20.2493C20.9962 20.2857 20.9381 20.3274 20.8851 20.3734C20.8321 20.3274 20.7739 20.2857 20.7108 20.2493L11.2695 14.7983Z" fill="#CD6200"/>
</svg>
