<svg width="42" height="42" viewBox="0 0 42 42" fill="none" xmlns="http://www.w3.org/2000/svg">
<g opacity="0.21">
<path d="M21 1L21.5166 1.00684C32.3235 1.28084 41 10.127 41 21C41 28.939 36.3741 35.7973 29.6709 39.0273C27.0478 40.2913 24.1067 41 21 41C17.8933 41 14.9522 40.2913 12.3291 39.0273C5.62586 35.7973 1 28.939 1 21C1 9.9543 9.9543 1 21 1Z" fill="#624DE3"/>
<path d="M21 1L21.0066 0.5H21V1ZM21.5166 1.00684L21.5293 0.50696L21.5232 0.50688L21.5166 1.00684ZM41 21H41.5H41ZM29.6709 39.0273L29.4538 38.5769L29.6709 39.0273ZM12.3291 39.0273L12.1121 39.4778L12.3291 39.0273ZM1 21H0.5H1ZM21 1L20.9934 1.49996L21.51 1.50679L21.5166 1.00684L21.5232 0.50688L21.0066 0.500044L21 1ZM21.5166 1.00684L21.5039 1.50668C32.0404 1.77383 40.5 10.3989 40.5 21H41H41.5C41.5 9.85512 32.6066 0.787861 21.5293 0.506997L21.5166 1.00684ZM41 21H40.5C40.5 28.7398 35.9907 35.427 29.4538 38.5769L29.6709 39.0273L29.8879 39.4778C36.7576 36.1675 41.5 29.1382 41.5 21H41ZM29.6709 39.0273L29.4538 38.5769C26.8969 39.809 24.0299 40.5 21 40.5V41V41.5C24.1835 41.5 27.1986 40.7737 29.8879 39.4778L29.6709 39.0273ZM21 41V40.5C17.9701 40.5 15.1031 39.809 12.5461 38.5769L12.3291 39.0273L12.1121 39.4778C14.8014 40.7737 17.8165 41.5 21 41.5V41ZM12.3291 39.0273L12.5461 38.5769C6.0093 35.427 1.5 28.7398 1.5 21H1H0.5C0.5 29.1382 5.24243 36.1675 12.1121 39.4778L12.3291 39.0273ZM1 21H1.5C1.5 10.2304 10.2304 1.5 21 1.5V1V0.5C9.67816 0.5 0.5 9.67816 0.5 21H1Z" fill="#E7E7E7"/>
</g>
<path opacity="0.587821" d="M26.335 17.4456C27.8074 17.4457 29.0007 18.6391 29.001 20.1116C29.001 21.5842 27.8076 22.7784 26.335 22.7786C24.8622 22.7786 23.668 21.5843 23.668 20.1116C23.6682 18.639 24.8623 17.4456 26.335 17.4456ZM18.3369 13.0002C20.3005 13.0003 21.8926 14.5923 21.8926 16.5559C21.8924 18.5194 20.3004 20.1115 18.3369 20.1116C16.3733 20.1116 14.7814 18.5194 14.7812 16.5559C14.7812 14.5922 16.3732 13.0002 18.3369 13.0002Z" fill="#624DE3"/>
<path d="M18.3216 21.8904C22.5773 21.8905 26.0739 23.9293 26.3343 28.2908C26.3447 28.4646 26.334 29.0017 25.6664 29.0017H10.9828C10.7598 29.0017 10.3175 28.5209 10.3363 28.2898C10.6809 24.0475 14.1249 21.8904 18.3216 21.8904ZM25.9837 23.6687C29.0105 23.7027 31.4813 25.2341 31.6673 28.4685C31.6748 28.5993 31.6666 29.0017 31.1849 29.0017H27.7581V28.9988C27.7581 26.9993 27.098 25.1537 25.9837 23.6687Z" fill="#624DE3"/>
</svg>
