<svg width="16" height="17" viewBox="0 0 16 17" fill="none" xmlns="http://www.w3.org/2000/svg">
<path d="M4.15132 7.83333H11.8493C12.424 7.83333 12.7293 7.15333 12.3473 6.72333L8.49865 2.39333C8.43622 2.32287 8.35955 2.26645 8.2737 2.22782C8.18786 2.18918 8.09479 2.1692 8.00065 2.1692C7.90651 2.1692 7.81344 2.18918 7.72759 2.22782C7.64175 2.26645 7.56508 2.32287 7.50265 2.39333L3.65265 6.72333C3.27065 7.15333 3.57598 7.83333 4.15132 7.83333ZM7.50198 14.606C7.56441 14.6765 7.64108 14.7329 7.72693 14.7715C7.81277 14.8101 7.90584 14.8301 7.99998 14.8301C8.09412 14.8301 8.18719 14.8101 8.27304 14.7715C8.35888 14.7329 8.43555 14.6765 8.49798 14.606L12.3466 10.276C12.7293 9.84666 12.424 9.16666 11.8486 9.16666H4.15132C3.57665 9.16666 3.27132 9.84666 3.65332 10.2767L7.50198 14.606Z" fill="#9E9E9E"/>
</svg>
