<svg width="42" height="42" viewBox="0 0 42 42" fill="none" xmlns="http://www.w3.org/2000/svg">
<g opacity="0.3">
<path d="M21 1L21.5166 1.00684C32.3235 1.28084 41 10.127 41 21C41 28.939 36.3741 35.7973 29.6709 39.0273C27.0478 40.2913 24.1067 41 21 41C17.8933 41 14.9522 40.2913 12.3291 39.0273C5.62586 35.7973 1 28.939 1 21C1 9.9543 9.9543 1 21 1Z" fill="#FF9066"/>
<path d="M21 1L21.0066 0.5H21V1ZM21.5166 1.00684L21.5293 0.50696L21.5232 0.50688L21.5166 1.00684ZM41 21H41.5H41ZM29.6709 39.0273L29.4538 38.5769L29.6709 39.0273ZM12.3291 39.0273L12.1121 39.4778L12.3291 39.0273ZM1 21H0.5H1ZM21 1L20.9934 1.49996L21.51 1.50679L21.5166 1.00684L21.5232 0.50688L21.0066 0.500044L21 1ZM21.5166 1.00684L21.5039 1.50668C32.0404 1.77383 40.5 10.3989 40.5 21H41H41.5C41.5 9.85512 32.6066 0.787861 21.5293 0.506997L21.5166 1.00684ZM41 21H40.5C40.5 28.7398 35.9907 35.427 29.4538 38.5769L29.6709 39.0273L29.8879 39.4778C36.7576 36.1675 41.5 29.1382 41.5 21H41ZM29.6709 39.0273L29.4538 38.5769C26.8969 39.809 24.0299 40.5 21 40.5V41V41.5C24.1835 41.5 27.1986 40.7737 29.8879 39.4778L29.6709 39.0273ZM21 41V40.5C17.9701 40.5 15.1031 39.809 12.5461 38.5769L12.3291 39.0273L12.1121 39.4778C14.8014 40.7737 17.8165 41.5 21 41.5V41ZM12.3291 39.0273L12.5461 38.5769C6.0093 35.427 1.5 28.7398 1.5 21H1H0.5C0.5 29.1382 5.24243 36.1675 12.1121 39.4778L12.3291 39.0273ZM1 21H1.5C1.5 10.2304 10.2304 1.5 21 1.5V1V0.5C9.67816 0.5 0.5 9.67816 0.5 21H1Z" fill="#E7E7E7"/>
</g>
<path opacity="0.78" fill-rule="evenodd" clip-rule="evenodd" d="M20.0745 17.0107C20.094 16.7578 20.3049 16.5625 20.5586 16.5625C20.808 16.5625 21.0168 16.7515 21.0416 16.9997L21.4423 21.0069L24.3164 22.6493C24.463 22.733 24.5534 22.8889 24.5534 23.0577C24.5534 23.3679 24.2585 23.5932 23.9593 23.5116L20.0632 22.449C19.8318 22.3859 19.6779 22.1674 19.6962 21.9283L20.0745 17.0107Z" fill="#FF9066"/>
<path opacity="0.901274" d="M15.4863 11.4479C15.5817 11.0482 16.0923 10.9271 16.3564 11.2418L17.3408 12.4156C18.4637 11.937 19.6994 11.6715 20.9971 11.6715L21.4775 11.6842C26.4091 11.9341 30.3311 16.0119 30.3311 21.0055C30.3309 26.16 26.1516 30.3385 20.9971 30.3385C15.8426 30.3383 11.6642 26.1599 11.6641 21.0055C11.6641 20.1301 11.7844 19.2825 12.0098 18.4791L13.7217 18.9596C13.5368 19.6189 13.4414 20.3051 13.4414 21.0055C13.4415 25.1781 16.8245 28.561 20.9971 28.5611C25.1698 28.5611 28.5526 25.1782 28.5527 21.0055C28.5527 16.9629 25.3781 13.6617 21.3857 13.4596L20.9971 13.4498C20.1505 13.4499 19.3262 13.5891 18.5488 13.8551L19.5371 15.0328C19.8016 15.3481 19.5925 15.8299 19.1816 15.8531L15.041 16.0885C14.7069 16.1074 14.4489 15.7988 14.5264 15.4733L15.4863 11.4479Z" fill="#FF9066"/>
</svg>
